ply
format ascii 1.0
comment Created by Blender 2.68 (sub 0) - www.blender.org, source file: ''
element vertex 28
property float x
property float y
property float z
property float nx
property float ny
property float nz
property uchar red
property uchar green
property uchar blue
element face 12
property list uchar uint vertex_indices
end_header
-1.000000 1.000000 1.000000 0.000000 -0.000000 1.000000 255 0 9
-1.000000 -1.000000 1.000000 0.000000 -0.000000 1.000000 255 0 9
1.000000 1.000000 1.000000 0.000000 -0.000000 1.000000 255 2 11
-1.000000 0.999999 -1.000000 -0.000000 0.000000 -1.000000 255 238 2
1.000000 1.000000 -1.000000 -0.000000 0.000000 -1.000000 255 237 0
-0.999999 -1.000001 -1.000000 -0.000000 0.000000 -1.000000 255 237 0
-1.000000 1.000000 1.000000 -1.000000 0.000000 0.000000 4 0 255
-1.000000 0.999999 -1.000000 -1.000000 0.000000 0.000000 45 41 255
-1.000000 -1.000000 1.000000 -1.000000 0.000000 0.000000 4 0 255
-1.000000 -1.000000 1.000000 0.000000 -1.000000 0.000000 255 0 246
-0.999999 -1.000001 -1.000000 0.000000 -1.000000 0.000000 255 0 246
1.000000 -1.000000 1.000000 0.000000 -1.000000 0.000000 255 5 246
1.000000 -1.000000 1.000000 1.000000 0.000000 -0.000000 110 255 28
1.000000 -1.000000 -1.000000 1.000000 0.000000 -0.000000 92 255 0
1.000000 1.000000 1.000000 1.000000 0.000000 -0.000000 96 255 6
-1.000000 0.999999 -1.000000 -0.000001 1.000000 -0.000001 0 255 216
-1.000000 1.000000 1.000000 -0.000001 1.000000 -0.000001 3 255 217
1.000000 1.000000 -1.000000 -0.000001 1.000000 -0.000001 0 255 216
1.000000 -1.000000 1.000000 0.000000 0.000000 1.000000 255 0 9
1.000000 -1.000000 -1.000000 0.000000 0.000000 -1.000000 255 237 0
-1.000000 0.999999 -1.000000 -1.000000 -0.000001 -0.000001 45 41 255
-0.999999 -1.000001 -1.000000 -1.000000 -0.000001 -0.000001 4 0 255
-1.000000 -1.000000 1.000000 -1.000000 -0.000001 -0.000001 4 0 255
1.000000 -1.000000 -1.000000 0.000000 -1.000000 0.000000 255 0 246
1.000000 1.000000 -1.000000 1.000000 0.000000 0.000000 96 255 6
-1.000000 1.000000 1.000000 0.000000 1.000000 -0.000000 3 255 217
1.000000 1.000000 1.000000 0.000000 1.000000 -0.000000 1 255 216
1.000000 1.000000 -1.000000 0.000000 1.000000 -0.000000 0 255 216
3 0 1 2
3 3 4 5
3 6 7 8
3 9 10 11
3 12 13 14
3 15 16 17
3 1 18 2
3 4 19 5
3 20 21 22
3 10 23 11
3 13 24 14
3 25 26 27
