ply
format ascii 1.0
comment Created by Blender 2.68 (sub 0) - www.blender.org, source file: ''
element vertex 28
property float x
property float y
property float z

element face 12
property list uchar uint vertex_indices
end_header
-1.000000 1.000000 1.000000 
-1.000000 -1.000000 1.000000 
1.000000 1.000000 1.000000 
-1.000000 0.999999 -1.000000
1.000000 1.000000 -1.000000 
-0.999999 -1.000001 -1.000000
-1.000000 1.000000 1.000000 
-1.000000 0.999999 -1.000000 
-1.000000 -1.000000 1.000000 
-1.000000 -1.000000 1.000000 
-0.999999 -1.000001 -1.000000 
1.000000 -1.000000 1.000000 
1.000000 -1.000000 1.000000 
1.000000 -1.000000 -1.000000 
1.000000 1.000000 1.000000 
-1.000000 0.999999 -1.000000 
-1.000000 1.000000 1.000000 
1.000000 1.000000 -1.000000 
1.000000 -1.000000 1.000000 
1.000000 -1.000000 -1.000000 
-1.000000 0.999999 -1.000000 
-0.999999 -1.000001 -1.000000 
-1.000000 -1.000000 1.000000 
1.000000 -1.000000 -1.000000 
1.000000 1.000000 -1.000000 
-1.000000 1.000000 1.000000 
1.000000 1.000000 1.000000 
1.000000 1.000000 -1.000000 
3 0 1 2
3 3 4 5
3 6 7 8
3 9 10 11
3 12 13 14
3 15 16 17
3 1 18 2
3 4 19 5
3 20 21 22
3 10 23 11
3 13 24 14
3 25 26 27
