ply
format ascii 1.0
comment Created by Blender 2.68 (sub 0) - www.blender.org, source file: ''
element vertex 170
property float x
property float y
property float z
property float nx
property float ny
property float nz
property uchar red
property uchar green
property uchar blue
element face 320
property list uchar uint vertex_indices
end_header
0.000000 0.000000 1.000000 0.000000 0.000000 1.000000 245 237 218
-0.203181 -0.147618 0.967950 -0.210944 -0.153264 0.965392 245 237 218
0.077607 -0.238853 0.967950 0.080569 -0.247963 0.965392 243 236 216
-0.723607 -0.525725 0.447220 -0.723594 -0.525681 0.447218 122 113 72
-0.609547 -0.442856 0.657519 -0.604205 -0.438978 0.664968 74 120 66
-0.812729 -0.295238 0.502301 -0.815180 -0.285714 0.503800 122 113 72
0.251147 0.000000 0.967949 0.260750 0.000000 0.965392 245 237 218
0.077607 0.238853 0.967950 0.080569 0.247963 0.965392 64 122 64
-0.203181 0.147618 0.967950 -0.210944 0.153264 0.965392 119 110 77
-0.860698 -0.442858 0.251151 -0.864986 -0.438948 0.243049 24 0 255
0.276388 -0.850649 0.447220 0.276376 -0.850642 0.447218 24 0 255
0.029639 -0.864184 0.502302 0.019837 -0.863552 0.503800 24 0 255
0.155215 -0.955422 0.251152 0.150212 -0.958281 0.243049 24 0 255
0.894426 0.000000 0.447216 0.894406 0.000000 0.447188 122 113 72
0.831051 -0.238853 0.502299 0.827448 -0.247963 0.503800 63 122 64
0.956626 -0.147618 0.251149 0.956877 -0.154759 0.245796 122 113 72
0.276388 0.850649 0.447220 0.276376 0.850642 0.447218 24 0 255
0.483971 0.716565 0.502302 0.491531 0.710288 0.503800 60 116 75
0.436007 0.864188 0.251152 0.441725 0.863582 0.243049 24 0 255
-0.723607 0.525725 0.447220 -0.723594 0.525712 0.447218 24 0 255
-0.531941 0.681712 0.502302 -0.523637 0.686972 0.503800 24 0 255
-0.687159 0.681715 0.251152 -0.684805 0.686972 0.243049 24 0 255
-0.687171 -0.681733 0.251158 -0.702475 -0.661763 0.261849 25 1 255
0.436007 -0.864188 0.251152 0.441633 -0.863582 0.243171 89 101 92
0.956626 0.147618 0.251149 0.956847 0.154759 0.245857 122 113 72
0.155215 0.955422 0.251152 0.150212 0.958281 0.243049 24 0 255
-0.860698 0.442858 0.251151 -0.864986 0.438978 0.243049 63 122 64
-0.276525 -0.851456 -0.447623 -0.318430 -0.869198 -0.378216 51 84 124
-0.483971 -0.716565 -0.502302 -0.526475 -0.705100 -0.474990 63 122 64
-0.241702 -0.747478 -0.686667 -0.246101 -0.698325 -0.672079 122 113 72
0.727043 -0.529085 -0.449543 0.736442 -0.463210 -0.493027 63 122 64
0.538943 -0.688539 -0.507397 0.490310 -0.681600 -0.543107 122 113 72
0.609547 -0.442856 -0.657519 0.603107 -0.425977 -0.674337 24 0 255
0.723607 0.525725 -0.447220 0.768242 0.482467 -0.420667 122 113 73
0.815901 0.295787 -0.504238 0.788415 0.308390 -0.532212 26 2 255
0.611948 0.445500 -0.660868 0.610248 0.398389 -0.684713 122 113 72
-0.276478 0.850835 -0.447337 -0.230689 0.868221 -0.439253 24 0 255
-0.029639 0.864184 -0.502302 -0.019532 0.863552 -0.503830 34 11 255
-0.232834 0.716591 -0.657539 -0.201880 0.706992 -0.677755 24 0 255
-0.897307 0.000363 -0.448429 -0.872921 -0.036225 -0.486496 59 41 188
-0.832650 0.239227 -0.503672 -0.803919 0.260201 -0.534776 132 122 165
-0.753452 0.000002 -0.657524 -0.743584 -0.002014 -0.668599 74 121 65
0.232822 -0.716563 0.657519 0.230781 -0.710288 0.664968 24 0 255
0.162456 -0.499995 0.850654 0.162450 -0.499985 0.850642 24 0 255
-0.052790 -0.688185 0.723612 -0.059206 -0.683493 0.727531 25 1 255
-0.138199 -0.425321 0.894429 -0.140629 -0.432844 0.890408 24 0 255
-0.262869 -0.809012 0.525738 -0.253883 -0.804834 0.536393 63 121 65
-0.361805 -0.587779 0.723611 -0.353832 -0.587756 0.727531 71 121 65
-0.531941 -0.681712 0.502302 -0.527329 -0.675741 0.515000 63 122 64
-0.425323 -0.309011 0.850654 -0.425306 -0.309000 0.850642 25 1 255
-0.138199 -0.425321 0.894429 -0.140629 -0.432844 0.890408 25 1 255
-0.812729 0.295238 0.502301 -0.815180 0.285714 0.503800 50 83 125
-0.609547 0.442856 0.657519 -0.604205 0.438978 0.664968 24 0 255
-0.850648 0.000000 0.525736 -0.850642 0.000000 0.525712 24 0 255
-0.670817 0.162457 0.723611 -0.668325 0.154881 0.727531 24 0 255
-0.670818 -0.162458 0.723610 -0.668325 -0.154881 0.727531 24 0 255
-0.425323 0.309011 0.850654 -0.425306 0.309000 0.850642 122 113 72
-0.447211 -0.000001 0.894428 -0.455123 0.000000 0.890408 28 5 255
-0.447211 -0.000001 0.894428 -0.455123 0.000000 0.890408 24 0 255
0.753442 0.000000 0.657515 0.746849 0.000000 0.664968 37 14 234
0.525730 0.000000 0.850652 0.525712 0.000000 0.850642 34 12 255
0.638195 -0.262864 0.723609 0.631733 -0.267495 0.727531 33 23 220
0.361801 -0.262864 0.894428 0.368206 -0.267495 0.890408 169 170 197
0.688189 -0.499997 0.525736 0.688162 -0.499985 0.525712 24 0 253
0.447211 -0.525729 0.723610 0.449629 -0.518143 0.727531 24 0 255
0.483971 -0.716565 0.502302 0.491531 -0.710288 0.503800 26 3 253
0.232822 0.716563 0.657519 0.230781 0.710288 0.664968 121 112 74
0.162456 0.499995 0.850654 0.162450 0.499985 0.850642 84 119 67
0.447211 0.525727 0.723612 0.449629 0.518143 0.727531 118 114 71
0.361801 0.262863 0.894429 0.368206 0.267495 0.890408 27 6 245
0.688189 0.499997 0.525736 0.688162 0.499985 0.525712 24 0 255
0.638195 0.262863 0.723609 0.631733 0.267495 0.727531 24 0 255
0.831051 0.238853 0.502299 0.827448 0.247963 0.503800 24 0 255
-0.361803 0.587779 0.723612 -0.353832 0.587756 0.727531 116 106 82
-0.138197 0.425321 0.894429 -0.140629 0.432844 0.890408 121 112 75
-0.361803 0.587779 0.723612 -0.353832 0.587756 0.727531 85 115 71
-0.262869 0.809012 0.525738 -0.262856 0.808985 0.525712 24 0 255
-0.052789 0.688186 0.723611 -0.059206 0.683493 0.727531 104 116 69
0.029639 0.864184 0.502302 0.019837 0.863552 0.503800 31 21 223
-0.956626 -0.147618 -0.251149 -0.951323 -0.193609 -0.239753 25 1 255
-0.991664 0.151883 -0.261312 -0.958281 0.150792 -0.242714 66 49 177
-0.951058 -0.309013 0.000000 -0.951048 -0.309000 0.000000 25 1 255
-1.000012 0.000001 -0.000001 -0.998840 -0.019959 0.043733 24 0 255
-0.947213 -0.162458 0.276396 -0.949614 -0.154881 0.272408 24 0 255
-0.951058 0.309013 -0.000000 -0.944151 0.327830 0.032350 24 0 255
-0.947213 0.162458 0.276396 -0.949614 0.154881 0.272408 24 0 255
-0.155327 -0.956092 -0.251451 -0.160131 -0.962035 -0.220954 24 0 255
-0.436007 -0.864188 -0.251152 -0.428388 -0.864498 -0.262856 63 122 64
0.000000 -1.000000 0.000000 0.000397 -0.999969 0.000641 24 0 255
-0.309017 -0.951056 -0.000000 -0.280892 -0.959716 -0.002686 24 0 255
-0.138199 -0.951055 0.276398 -0.132420 -0.953124 0.271950 24 0 255
-0.599153 -0.827584 0.000854 -0.592273 -0.805597 -0.012604 26 8 242
-0.455025 -0.862211 0.279303 -0.431776 -0.853298 0.292184 24 0 255
0.860698 -0.442858 -0.251151 0.888730 -0.390790 -0.239540 63 122 64
0.719658 -0.713444 -0.263402 0.688803 -0.685720 -0.235145 79 119 67
0.951058 -0.309013 0.000000 0.950774 -0.309854 0.000031 88 117 68
0.810514 -0.589272 -0.000051 0.822596 -0.566149 0.052919 64 122 64
0.861803 -0.425324 0.276396 0.859371 -0.431623 0.274087 117 112 73
0.587880 -0.809111 -0.000002 0.564470 -0.824396 0.041414 115 113 72
0.670819 -0.688191 0.276397 0.676077 -0.683859 0.274239 66 121 65
0.687978 0.682807 -0.251658 0.705222 0.679861 -0.200995 63 122 64
0.860698 0.442858 -0.251151 0.844386 0.481552 -0.234687 63 122 64
0.587786 0.809017 0.000000 0.587115 0.809473 0.001282 71 120 66
0.809018 0.587783 0.000000 0.809412 0.587115 0.010224 63 122 64
0.670819 0.688191 0.276397 0.677206 0.683493 0.272408 24 0 255
0.951058 0.309013 -0.000000 0.942717 0.331339 0.038209 24 0 255
0.861803 0.425324 0.276396 0.859310 0.432844 0.272408 24 0 255
-0.438334 0.868119 -0.253018 -0.433210 0.875149 -0.215400 24 0 255
-0.155215 0.955422 -0.251152 -0.144963 0.959166 -0.242805 25 1 255
-0.587786 0.809017 0.000000 -0.589923 0.807428 0.004364 24 0 255
-0.309017 0.951056 0.000000 -0.306467 0.951781 0.013459 28 4 255
-0.447216 0.850648 0.276398 -0.440748 0.855251 0.272408 24 0 255
0.000000 1.000000 -0.000000 0.000000 1.000000 0.000000 25 1 255
-0.138199 0.951055 0.276398 -0.146123 0.950987 0.272408 24 1 255
-0.670820 -0.688190 -0.276396 -0.680624 -0.672323 -0.290994 26 4 248
-0.809019 -0.587783 0.000002 -0.821680 -0.569872 -0.008911 24 0 255
-0.688189 -0.499997 -0.525736 -0.688162 -0.499985 -0.525712 122 113 72
-0.861804 -0.425323 -0.276394 -0.859310 -0.432844 -0.272408 24 0 255
-0.831051 -0.238853 -0.502299 -0.826106 -0.251320 -0.504349 108 96 99
0.587880 -0.809111 -0.000002 0.564470 -0.824396 0.041414 122 113 72
0.447216 -0.850648 -0.276397 0.389843 -0.882168 -0.264046 120 152 119
0.719658 -0.713444 -0.263402 0.688803 -0.685720 -0.235145 80 119 67
0.309017 -0.951056 0.000001 0.308878 -0.951048 -0.008850 94 84 119
0.262869 -0.809012 -0.525738 0.273873 -0.805383 -0.525651 69 52 171
0.138199 -0.951055 -0.276397 0.160680 -0.954131 -0.252571 109 115 71
-0.033052 -0.883619 -0.513084 0.007141 -0.880490 -0.473983 24 0 255
0.986881 0.168838 -0.288326 0.948576 0.162297 -0.271645 24 0 255
1.002904 0.000230 -0.000420 0.999390 -0.020508 0.027406 122 113 72
0.854082 0.000601 -0.527885 0.829737 -0.025361 -0.557543 24 0 255
0.947213 -0.162458 -0.276397 0.942106 -0.199255 -0.269570 63 121 65
0.812729 -0.295238 -0.502301 0.815546 -0.284249 -0.504013 24 0 255
0.138199 0.951055 -0.276397 0.146123 0.951018 -0.272408 28 4 255
0.309016 0.951057 0.000000 0.309000 0.951018 -0.008850 31 9 240
0.262869 0.809012 -0.525738 0.217444 0.822871 -0.524918 122 113 72
0.447216 0.850650 -0.276398 0.420484 0.877194 -0.231727 121 112 73
0.555894 0.712869 -0.524956 0.525590 0.687826 -0.500595 122 113 72
-0.861804 0.425322 -0.276396 -0.840175 0.469344 -0.271615 122 113 72
-0.809019 0.587782 0.000000 -0.808985 0.587756 -0.008850 24 0 255
-0.688189 0.499997 -0.525736 -0.704306 0.477279 -0.525468 66 123 66
-0.670821 0.688189 -0.276397 -0.698111 0.672231 -0.246376 97 85 116
-0.495511 0.740077 -0.516399 -0.486648 0.711570 -0.506790 122 113 73
-0.077607 -0.238853 -0.967950 -0.080569 -0.247963 -0.965392 65 122 64
-0.251147 0.000000 -0.967949 -0.260750 0.000000 -0.965392 85 136 83
0.000000 0.000000 -1.000000 0.000000 0.000000 -1.000000 183 174 145
-0.162458 -0.500002 -0.850663 -0.150426 -0.462569 -0.873714 122 113 72
-0.361800 -0.262863 -0.894429 -0.368206 -0.267495 -0.890408 63 122 64
-0.447209 -0.525728 -0.723612 -0.480392 -0.482620 -0.732322 122 113 72
-0.525730 0.000000 -0.850652 -0.525681 -0.000031 -0.850673 63 122 64
-0.638194 -0.262864 -0.723610 -0.631733 -0.267525 -0.727531 65 121 64
0.203181 -0.147618 -0.967950 0.210944 -0.153264 -0.965392 123 114 74
0.425323 -0.309011 -0.850654 0.425306 -0.309000 -0.850642 122 113 72
0.138197 -0.425319 -0.894430 0.140660 -0.432783 -0.890439 122 113 73
0.361804 -0.587778 -0.723612 0.346049 -0.582812 -0.735191 24 0 255
0.138197 -0.425319 -0.894430 0.140660 -0.432783 -0.890439 122 113 72
0.052785 -0.688225 -0.723653 0.112400 -0.654836 -0.747337 24 0 255
0.203181 0.147618 -0.967950 0.210944 0.153264 -0.965392 203 192 225
0.425323 0.309011 -0.850654 0.421796 0.306101 -0.853450 245 237 218
0.447210 0.000000 -0.894429 0.455123 0.000000 -0.890408 39 17 253
0.670819 0.162457 -0.723613 0.663442 0.149724 -0.733085 24 0 255
0.670817 -0.162457 -0.723611 0.665456 -0.156987 -0.729698 24 0 255
-0.077607 0.238853 -0.967950 -0.080569 0.247963 -0.965392 176 163 230
-0.162456 0.499995 -0.850654 -0.162420 0.499954 -0.850673 188 176 227
0.138197 0.425319 -0.894430 0.140416 0.432661 -0.890530 245 237 218
-0.232834 0.716591 -0.657539 -0.201880 0.706992 -0.677755 49 27 251
0.052790 0.688185 -0.723612 0.058962 0.683523 -0.727500 164 186 150
0.361944 0.587934 -0.723805 0.316385 0.568926 -0.759056 81 116 70
0.052790 0.688185 -0.723612 0.058962 0.683523 -0.727500 63 122 64
-0.361800 0.262863 -0.894429 -0.368145 0.267495 -0.890439 24 0 255
-0.638235 0.262874 -0.723646 -0.629902 0.267647 -0.729087 122 113 72
-0.447209 0.525728 -0.723612 -0.443525 0.494034 -0.747765 122 113 72
3 0 1 2
3 3 4 5
3 0 2 6
3 0 6 7
3 0 7 8
3 3 5 9
3 10 11 12
3 13 14 15
3 16 17 18
3 19 20 21
3 3 9 22
3 10 12 23
3 13 15 24
3 16 18 25
3 19 21 26
3 27 28 29
3 30 31 32
3 33 34 35
3 36 37 38
3 39 40 41
3 42 11 10
3 43 44 42
3 2 45 43
3 42 44 11
3 44 46 11
3 43 45 44
3 45 47 44
3 44 47 46
3 47 48 46
3 2 1 45
3 1 49 50
3 45 49 47
3 49 4 47
3 47 4 48
3 4 3 48
3 51 52 19
3 53 54 51
3 5 55 53
3 51 54 52
3 54 56 52
3 53 55 54
3 55 57 54
3 54 58 56
3 58 8 56
3 5 4 55
3 4 49 55
3 55 49 58
3 49 1 58
3 58 1 8
3 1 0 8
3 59 14 13
3 60 61 59
3 6 62 60
3 59 61 14
3 61 63 14
3 60 62 61
3 62 64 61
3 61 64 63
3 64 65 63
3 6 2 62
3 2 43 62
3 62 43 64
3 43 42 64
3 64 42 65
3 42 10 65
3 66 17 16
3 67 68 66
3 7 69 67
3 66 68 17
3 68 70 17
3 67 69 68
3 69 71 68
3 68 71 70
3 71 72 70
3 7 6 69
3 6 60 69
3 69 60 71
3 60 59 71
3 71 59 72
3 59 13 72
3 52 20 19
3 56 73 52
3 8 74 56
3 52 73 20
3 75 76 20
3 56 74 75
3 74 77 75
3 75 77 76
3 77 78 76
3 8 7 74
3 7 67 74
3 74 67 77
3 67 66 77
3 77 66 78
3 66 16 78
3 79 80 39
3 81 82 79
3 9 83 81
3 79 82 80
3 82 84 80
3 81 83 82
3 83 85 82
3 82 85 84
3 85 26 84
3 9 5 83
3 5 53 83
3 83 53 85
3 53 51 85
3 85 51 26
3 51 19 26
3 86 87 27
3 88 89 86
3 12 90 88
3 86 89 87
3 89 91 87
3 88 90 89
3 90 92 89
3 89 92 91
3 92 22 91
3 12 11 90
3 11 46 90
3 90 46 92
3 46 48 92
3 92 48 22
3 48 3 22
3 93 94 30
3 95 96 93
3 15 97 95
3 93 96 94
3 96 98 94
3 95 97 96
3 97 99 96
3 96 99 98
3 99 23 98
3 15 14 97
3 14 63 97
3 97 63 99
3 63 65 99
3 99 65 23
3 65 10 23
3 100 101 33
3 102 103 100
3 18 104 102
3 100 103 101
3 103 105 101
3 102 104 103
3 104 106 103
3 103 106 105
3 106 24 105
3 18 17 104
3 17 70 104
3 104 70 106
3 70 72 106
3 106 72 24
3 72 13 24
3 107 108 36
3 109 110 107
3 21 111 109
3 107 110 108
3 110 112 108
3 109 111 110
3 111 113 110
3 110 113 112
3 113 25 112
3 21 20 111
3 20 76 111
3 111 76 113
3 76 78 113
3 113 78 25
3 78 16 25
3 87 28 27
3 91 114 87
3 22 115 91
3 87 114 28
3 114 116 28
3 91 115 114
3 115 117 114
3 114 117 116
3 117 118 116
3 22 9 115
3 9 81 115
3 115 81 117
3 81 79 117
3 117 79 118
3 79 39 118
3 94 31 30
3 119 120 121
3 23 122 119
3 121 120 31
3 120 123 31
3 119 122 120
3 122 124 120
3 120 124 123
3 124 125 123
3 23 12 122
3 12 88 122
3 122 88 124
3 88 86 124
3 124 86 125
3 86 27 125
3 101 34 33
3 105 126 101
3 24 127 105
3 101 126 34
3 126 128 34
3 105 127 126
3 127 129 126
3 126 129 128
3 129 130 128
3 24 15 127
3 15 95 127
3 127 95 129
3 95 93 129
3 129 93 130
3 93 30 130
3 108 37 36
3 112 131 108
3 25 132 112
3 108 131 37
3 131 133 37
3 112 132 131
3 132 134 131
3 131 134 133
3 134 135 133
3 25 18 132
3 18 102 132
3 132 102 134
3 102 100 134
3 134 100 135
3 100 33 135
3 80 40 39
3 84 136 80
3 26 137 84
3 80 136 40
3 136 138 40
3 84 137 136
3 137 139 136
3 136 139 138
3 139 140 138
3 26 21 137
3 21 109 137
3 137 109 139
3 109 107 139
3 139 107 140
3 107 36 140
3 141 142 143
3 144 145 141
3 29 146 144
3 141 145 142
3 145 147 142
3 144 146 145
3 146 148 145
3 145 148 147
3 148 41 147
3 29 28 146
3 28 116 146
3 146 116 148
3 116 118 148
3 148 118 41
3 118 39 41
3 149 141 143
3 150 151 149
3 32 152 150
3 149 151 141
3 153 144 141
3 150 152 151
3 152 154 153
3 153 154 144
3 154 29 144
3 32 31 152
3 31 123 152
3 152 123 154
3 123 125 154
3 154 125 29
3 125 27 29
3 155 149 143
3 156 157 155
3 35 158 156
3 155 157 149
3 157 150 149
3 156 158 157
3 158 159 157
3 157 159 150
3 159 32 150
3 35 34 158
3 34 128 158
3 158 128 159
3 128 130 159
3 159 130 32
3 130 30 32
3 160 155 143
3 161 162 160
3 163 164 161
3 160 162 155
3 162 156 155
3 161 164 162
3 164 165 162
3 162 165 156
3 165 35 156
3 38 37 166
3 37 133 166
3 166 133 165
3 133 135 165
3 165 135 35
3 135 33 35
3 142 160 143
3 147 167 142
3 41 168 147
3 142 167 160
3 167 161 160
3 147 168 167
3 168 169 167
3 167 169 161
3 169 163 161
3 41 40 168
3 40 138 168
3 168 138 169
3 138 140 169
3 169 140 163
3 140 36 38
