ply
format ascii 1.0
comment Created by Blender 2.68 (sub 0) - www.blender.org, source file: ''
element vertex 492
property float x
property float y
property float z
property float nx
property float ny
property float nz
property uchar red
property uchar green
property uchar blue
element face 960
property list uchar uint vertex_indices
end_header
0.980785 0.000000 0.195090 0.980987 0.000000 0.193915 189 189 189
1.000000 0.000000 -0.000000 1.000000 0.000000 0.000000 189 189 189
0.980785 0.195090 -0.000000 0.980773 0.195074 0.000000 189 189 189
0.555570 0.000000 -0.831470 0.559771 0.000000 -0.828639 189 189 189
0.382683 0.000000 -0.923880 0.387860 0.000000 -0.921690 189 189 189
0.375330 0.074658 -0.923880 0.380413 0.075655 -0.921690 189 189 189
0.923880 0.000000 0.382683 0.924741 0.000000 0.380535 189 189 189
0.961940 0.191342 0.195090 0.962157 0.191382 0.193915 189 189 189
0.707107 0.000000 -0.707107 0.710135 0.000000 -0.704031 189 189 189
0.544895 0.108386 -0.831470 0.548997 0.109195 -0.828639 189 189 189
0.831470 0.000000 0.555570 0.833338 0.000000 0.552751 189 189 189
0.906127 0.180240 0.382683 0.906980 0.180395 0.380535 189 189 189
0.831470 0.000000 -0.555570 0.833338 0.000000 -0.552751 189 189 189
0.693520 0.137950 -0.707107 0.696493 0.138524 -0.704031 189 189 189
0.707107 0.000000 0.707107 0.710135 0.000000 0.704031 189 189 189
0.815493 0.162212 0.555570 0.817316 0.162572 0.552751 189 189 189
0.923880 0.000000 -0.382683 0.924741 0.000000 -0.380535 189 189 189
0.815493 0.162212 -0.555570 0.817316 0.162572 -0.552751 189 189 189
0.555570 0.000000 0.831470 0.559771 0.000000 0.828639 189 189 189
0.693520 0.137950 0.707107 0.696493 0.138524 0.704031 189 189 189
0.980785 0.000000 -0.195090 0.980987 0.000000 -0.193915 189 189 189
0.906127 0.180240 -0.382683 0.906980 0.180395 -0.380535 189 189 189
0.382683 0.000000 0.923880 0.387860 0.000000 0.921690 189 189 189
0.544895 0.108386 0.831470 0.548997 0.109195 0.828639 189 189 189
0.961940 0.191342 -0.195090 0.962157 0.191382 -0.193915 189 189 189
0.195090 0.000000 -0.980785 0.200964 0.000000 -0.979583 189 189 189
0.191342 0.038060 -0.980785 0.197089 0.039186 -0.979583 189 189 189
0.195090 0.000000 0.980785 0.200964 0.000000 0.979583 189 189 189
0.375330 0.074658 0.923880 0.380413 0.075655 0.921690 189 189 189
0.768178 0.318190 0.555570 0.769890 0.318888 0.552751 189 189 189
0.768178 0.318190 -0.555570 0.769890 0.318888 -0.552751 189 189 189
0.653281 0.270598 0.707107 0.656056 0.271737 0.704031 189 189 189
0.853553 0.353553 -0.382683 0.854366 0.353862 -0.380535 189 189 189
0.513280 0.212608 0.831470 0.517136 0.214209 0.828639 189 189 189
0.906127 0.375330 -0.195090 0.906339 0.375408 -0.193915 189 189 189
0.180240 0.074658 -0.980785 0.185644 0.076907 -0.979583 189 189 189
0.191341 0.038060 0.980785 0.197089 0.039186 0.979583 189 189 189
0.353553 0.146447 0.923880 0.358348 0.148412 0.921690 189 189 189
0.923880 0.382684 -0.000000 0.923856 0.382672 0.000000 189 189 189
0.353553 0.146447 -0.923880 0.358348 0.148412 -0.921690 189 189 189
0.906127 0.375330 0.195090 0.906339 0.375408 0.193915 189 189 189
0.513280 0.212608 -0.831470 0.517136 0.214209 -0.828639 189 189 189
0.853553 0.353554 0.382683 0.854366 0.353893 0.380535 189 189 189
0.653281 0.270598 -0.707107 0.656056 0.271737 -0.704031 189 189 189
0.815493 0.544895 0.195090 0.815668 0.545000 0.193915 189 189 189
0.461940 0.308658 -0.831470 0.465407 0.310984 -0.828639 189 189 189
0.768178 0.513280 0.382683 0.768914 0.513749 0.380535 189 189 189
0.587938 0.392848 -0.707107 0.590442 0.394513 -0.704031 189 189 189
0.691342 0.461940 0.555570 0.692892 0.462966 0.552751 189 189 189
0.691342 0.461940 -0.555570 0.692892 0.462966 -0.552751 189 189 189
0.587938 0.392848 0.707107 0.590442 0.394513 0.704031 189 189 189
0.768178 0.513280 -0.382683 0.768914 0.513749 -0.380535 189 189 189
0.461940 0.308658 0.831470 0.465407 0.310984 0.828639 189 189 189
0.815493 0.544895 -0.195090 0.815668 0.545000 -0.193915 189 189 189
0.162212 0.108387 -0.980785 0.167089 0.111637 -0.979583 189 189 189
0.180240 0.074658 0.980785 0.185644 0.076907 0.979583 189 189 189
0.318189 0.212608 0.923880 0.322489 0.215491 0.921690 189 189 189
0.831470 0.555570 -0.000000 0.831446 0.555559 0.000000 189 189 189
0.318190 0.212608 -0.923880 0.322489 0.215491 -0.921690 189 189 189
0.392847 0.392848 0.831470 0.395795 0.395795 0.828639 189 189 189
0.693520 0.693520 -0.195090 0.693655 0.693655 -0.193915 189 189 189
0.137950 0.137950 -0.980785 0.142094 0.142094 -0.979583 189 189 189
0.162211 0.108386 0.980785 0.167089 0.111637 0.979583 189 189 189
0.270598 0.270598 0.923880 0.274270 0.274270 0.921690 189 189 189
0.707107 0.707107 -0.000000 0.707083 0.707083 0.000000 189 189 189
0.270598 0.270598 -0.923880 0.274270 0.274270 -0.921690 189 189 189
0.693520 0.693520 0.195090 0.693655 0.693655 0.193915 189 189 189
0.392847 0.392848 -0.831470 0.395795 0.395795 -0.828639 189 189 189
0.653281 0.653282 0.382683 0.653890 0.653890 0.380535 189 189 189
0.500000 0.500000 -0.707107 0.502121 0.502121 -0.704031 189 189 189
0.587938 0.587938 0.555570 0.589251 0.589251 0.552751 190 190 190
0.587938 0.587938 -0.555570 0.589251 0.589251 -0.552751 189 189 189
0.500000 0.500000 0.707107 0.502121 0.502121 0.704031 189 189 189
0.653281 0.653282 -0.382683 0.653890 0.653890 -0.380535 190 190 190
0.392847 0.587938 -0.707107 0.394513 0.590442 -0.704031 189 189 189
0.461939 0.691342 0.555570 0.462966 0.692892 0.552751 193 193 193
0.461939 0.691342 -0.555570 0.462966 0.692892 -0.552751 190 190 190
0.392847 0.587938 0.707107 0.394513 0.590442 0.704031 189 189 189
0.513280 0.768178 -0.382683 0.513749 0.768914 -0.380535 189 189 189
0.308658 0.461940 0.831470 0.310984 0.465407 0.828639 189 189 189
0.544895 0.815493 -0.195090 0.545000 0.815668 -0.193915 189 189 189
0.108386 0.162212 -0.980785 0.111637 0.167089 -0.979583 189 189 189
0.137949 0.137950 0.980785 0.142094 0.142094 0.979583 189 189 189
0.212607 0.318190 0.923880 0.215491 0.322489 0.921690 189 189 189
0.555570 0.831470 -0.000000 0.555559 0.831446 0.000000 189 189 189
0.212607 0.318190 -0.923880 0.215491 0.322489 -0.921690 189 189 189
0.544895 0.815493 0.195090 0.545000 0.815668 0.193915 189 189 189
0.308658 0.461940 -0.831470 0.310984 0.465407 -0.828639 189 189 189
0.587938 0.587938 0.555570 0.589251 0.589251 0.552751 189 189 189
0.513280 0.768178 0.382683 0.513749 0.768914 0.380535 189 189 189
0.382683 0.923880 -0.000000 0.382672 0.923856 0.000000 189 189 189
0.146446 0.353554 -0.923880 0.148412 0.358348 -0.921690 189 189 189
0.375330 0.906128 0.195090 0.375408 0.906339 0.193915 189 189 189
0.212607 0.513280 -0.831470 0.214209 0.517136 -0.828639 189 189 189
0.461939 0.691342 0.555570 0.462966 0.692892 0.552751 189 189 189
0.353553 0.853554 0.382683 0.353862 0.854366 0.380535 189 189 189
0.270598 0.653282 -0.707107 0.271737 0.656056 -0.704031 189 189 189
0.318189 0.768178 0.555570 0.318888 0.769890 0.552751 192 192 192
0.318189 0.768178 -0.555570 0.318888 0.769890 -0.552751 190 190 190
0.270598 0.653282 0.707107 0.271737 0.656056 0.704031 189 189 189
0.353553 0.853554 -0.382683 0.353862 0.854366 -0.380535 189 189 189
0.212607 0.513280 0.831470 0.214209 0.517136 0.828639 189 189 189
0.074658 0.180240 -0.980785 0.076907 0.185644 -0.979583 189 189 189
0.108386 0.162212 0.980785 0.111637 0.167089 0.979583 189 189 189
0.146446 0.353554 0.923880 0.148412 0.358348 0.921690 189 189 189
0.137949 0.693520 0.707107 0.138524 0.696493 0.704031 189 189 189
0.375330 0.906128 -0.195090 0.375408 0.906339 -0.193915 189 189 189
0.180240 0.906128 -0.382683 0.180395 0.906980 -0.380535 189 189 189
0.108386 0.544895 0.831470 0.109195 0.548997 0.828639 189 189 189
0.195090 0.980785 -0.000000 0.195074 0.980773 0.000000 189 189 189
0.038060 0.191342 -0.980785 0.039186 0.197089 -0.979583 189 189 189
0.074658 0.180240 0.980785 0.076907 0.185644 0.979583 189 189 189
0.074658 0.375330 0.923880 0.075655 0.380413 0.921690 189 189 189
0.074658 0.375331 -0.923880 0.075655 0.380413 -0.921690 189 189 189
0.180240 0.906128 0.382683 0.180395 0.906980 0.380535 189 189 189
0.108386 0.544895 -0.831470 0.109195 0.548997 -0.828639 189 189 189
0.318189 0.768178 0.555570 0.318888 0.769890 0.552751 189 189 189
0.137949 0.693520 -0.707107 0.138524 0.696493 -0.704031 189 189 189
0.162211 0.815493 0.555570 0.162572 0.817316 0.552751 190 190 190
0.162211 0.815493 -0.555570 0.162572 0.817316 -0.552751 189 189 189
0.162211 0.815493 0.555570 0.162572 0.817316 0.552751 189 189 189
-0.000000 0.923880 0.382683 0.000000 0.924741 0.380535 189 189 189
-0.000000 0.707107 -0.707107 0.000000 0.710135 -0.704031 189 189 189
-0.000000 0.831470 0.555570 0.000000 0.833338 0.552751 189 189 189
-0.000000 0.831470 -0.555570 0.000000 0.833338 -0.552751 189 189 189
-0.000000 0.707107 0.707107 0.000000 0.710135 0.704031 189 189 189
0.191341 0.961940 -0.195090 0.191382 0.962157 -0.193915 189 189 189
-0.000000 0.923880 -0.382683 0.000000 0.924741 -0.380535 189 189 189
-0.000000 0.555570 0.831470 0.000000 0.559771 0.828639 189 189 189
-0.000000 1.000000 -0.000000 0.000000 0.999969 0.000000 189 189 189
-0.000000 0.195091 -0.980785 0.000000 0.200964 -0.979583 189 189 189
0.038060 0.191342 0.980785 0.039186 0.197089 0.979583 189 189 189
-0.000000 0.382684 0.923880 0.000000 0.387860 0.921690 189 189 189
0.191341 0.961940 0.195090 0.191382 0.962157 0.193915 189 189 189
-0.000000 0.382684 -0.923880 0.000000 0.387860 -0.921690 189 189 189
-0.000000 0.555570 -0.831470 0.000000 0.559771 -0.828639 189 189 189
-0.000000 0.195090 0.980785 0.000000 0.200964 0.979583 189 189 189
-0.074658 0.375330 0.923880 -0.075655 0.380413 0.921690 189 189 189
-0.000000 0.980785 0.195090 0.000000 0.980987 0.193915 189 189 189
-0.195091 0.980785 -0.000000 -0.195074 0.980773 0.000000 189 189 189
-0.074658 0.375330 -0.923880 -0.075655 0.380413 -0.921690 189 189 189
-0.180240 0.906128 0.382683 -0.180395 0.906980 0.380535 189 189 189
-0.108387 0.544895 -0.831470 -0.109195 0.548997 -0.828639 189 189 189
-0.137950 0.693520 -0.707107 -0.138524 0.696493 -0.704031 189 189 189
-0.162212 0.815493 0.555570 -0.162572 0.817316 0.552751 189 189 189
-0.162212 0.815493 -0.555570 -0.162572 0.817316 -0.552751 189 189 189
-0.137950 0.693520 0.707107 -0.138524 0.696493 0.704031 189 189 189
-0.000000 0.980785 -0.195090 0.000000 0.980987 -0.193915 189 189 189
-0.180240 0.906128 -0.382683 -0.180395 0.906980 -0.380535 189 189 189
-0.108387 0.544895 0.831470 -0.109195 0.548997 0.828639 189 189 189
-0.038061 0.191342 -0.980785 -0.039186 0.197089 -0.979583 189 189 189
-0.270599 0.653282 0.707107 -0.271737 0.656056 0.704031 189 189 189
-0.191342 0.961940 -0.195090 -0.191382 0.962157 -0.193915 189 189 189
-0.353554 0.853553 -0.382683 -0.353893 0.854366 -0.380535 189 189 189
-0.212608 0.513280 0.831470 -0.214209 0.517136 0.828639 189 189 189
-0.382684 0.923880 -0.000000 -0.382672 0.923856 0.000000 189 189 189
-0.074658 0.180240 -0.980785 -0.076907 0.185644 -0.979583 189 189 189
-0.038061 0.191342 0.980785 -0.039186 0.197089 0.979583 189 189 189
-0.146447 0.353553 0.923880 -0.148412 0.358348 0.921690 189 189 189
-0.191342 0.961940 0.195090 -0.191382 0.962157 0.193915 189 189 189
-0.146447 0.353554 -0.923880 -0.148412 0.358348 -0.921690 189 189 189
-0.353554 0.853554 0.382683 -0.353893 0.854366 0.380535 189 189 189
-0.212608 0.513280 -0.831470 -0.214209 0.517136 -0.828639 189 189 189
-0.270599 0.653282 -0.707107 -0.271737 0.656056 -0.704031 189 189 189
-0.318190 0.768178 0.555570 -0.318888 0.769890 0.552751 189 189 189
-0.318190 0.768178 -0.555570 -0.318888 0.769890 -0.552751 189 189 189
-0.513280 0.768178 0.382683 -0.513749 0.768914 0.380535 189 189 189
-0.270599 0.653282 -0.707107 -0.271737 0.656056 -0.704031 193 193 193
-0.392848 0.587938 -0.707107 -0.394513 0.590442 -0.704031 191 191 191
-0.461940 0.691342 0.555570 -0.462966 0.692892 0.552751 189 189 189
-0.461940 0.691342 -0.555570 -0.462966 0.692892 -0.552751 189 189 189
-0.392848 0.587938 0.707107 -0.394513 0.590442 0.704031 189 189 189
-0.375331 0.906127 -0.195090 -0.375408 0.906339 -0.193915 189 189 189
-0.513280 0.768178 -0.382683 -0.513749 0.768914 -0.380535 189 189 189
-0.308659 0.461940 0.831470 -0.310984 0.465407 0.828639 189 189 189
-0.555571 0.831470 -0.000000 -0.555559 0.831446 0.000000 189 189 189
-0.108387 0.162212 -0.980785 -0.111637 0.167089 -0.979583 189 189 189
-0.074658 0.180240 0.980785 -0.076907 0.185644 0.979583 189 189 189
-0.212608 0.318190 0.923880 -0.215491 0.322489 0.921690 189 189 189
-0.375331 0.906127 0.195090 -0.375408 0.906339 0.193915 189 189 189
-0.212608 0.318190 -0.923880 -0.215491 0.322489 -0.921690 189 189 189
-0.308659 0.461940 -0.831470 -0.310984 0.465407 -0.828639 189 189 189
-0.108387 0.162212 0.980785 -0.111637 0.167089 0.979583 189 189 189
-0.270598 0.270598 0.923880 -0.274270 0.274270 0.921690 189 189 189
-0.544895 0.815493 0.195090 -0.545000 0.815668 0.193915 189 189 189
-0.707107 0.707107 -0.000000 -0.707083 0.707083 0.000000 189 189 189
-0.270599 0.270598 -0.923880 -0.274270 0.274270 -0.921690 189 189 189
-0.653282 0.653282 0.382683 -0.653890 0.653890 0.380535 189 189 189
-0.392848 0.587938 -0.707107 -0.394513 0.590442 -0.704031 189 189 189
-0.392848 0.392848 -0.831470 -0.395795 0.395795 -0.828639 189 189 189
-0.461940 0.691342 -0.555570 -0.462966 0.692892 -0.552751 190 190 190
-0.500000 0.500000 -0.707107 -0.502121 0.502121 -0.704031 189 189 189
-0.587938 0.587938 0.555570 -0.589251 0.589251 0.552751 189 189 189
-0.587938 0.587938 -0.555570 -0.589251 0.589251 -0.552751 189 189 189
-0.500000 0.500000 0.707107 -0.502121 0.502121 0.704031 189 189 189
-0.544895 0.815493 -0.195090 -0.545000 0.815668 -0.193915 189 189 189
-0.653282 0.653281 -0.382683 -0.653890 0.653890 -0.380535 189 189 189
-0.392848 0.392847 0.831470 -0.395795 0.395795 0.828639 189 189 189
-0.693520 0.693520 -0.195090 -0.693655 0.693655 -0.193915 189 189 189
-0.137950 0.137950 -0.980785 -0.142094 0.142094 -0.979583 189 189 189
-0.587938 0.392847 0.707107 -0.590442 0.394513 0.704031 189 189 189
-0.768178 0.513280 -0.382683 -0.768914 0.513749 -0.380535 189 189 189
-0.461940 0.308658 0.831470 -0.465407 0.310984 0.828639 189 189 189
-0.815493 0.544895 -0.195090 -0.815668 0.545000 -0.193915 189 189 189
-0.162212 0.108386 -0.980785 -0.167089 0.111637 -0.979583 189 189 189
-0.137950 0.137950 0.980785 -0.142094 0.142094 0.979583 189 189 189
-0.318190 0.212608 0.923880 -0.322489 0.215491 0.921690 189 189 189
-0.693520 0.693520 0.195090 -0.693655 0.693655 0.193915 189 189 189
-0.831470 0.555570 -0.000000 -0.831446 0.555559 0.000000 189 189 189
-0.318190 0.212608 -0.923880 -0.322489 0.215491 -0.921690 189 189 189
-0.815493 0.544895 0.195090 -0.815668 0.545000 0.193915 189 189 189
-0.461940 0.308658 -0.831470 -0.465407 0.310984 -0.828639 189 189 189
-0.768178 0.513280 0.382683 -0.768914 0.513749 0.380535 189 189 189
-0.587938 0.392847 -0.707107 -0.590442 0.394513 -0.704031 189 189 189
-0.691342 0.461940 0.555570 -0.692892 0.462966 0.552751 189 189 189
-0.691342 0.461940 -0.555570 -0.692892 0.462966 -0.552751 189 189 189
-0.513280 0.212608 -0.831470 -0.517136 0.214209 -0.828639 189 189 189
-0.853554 0.353553 0.382683 -0.854366 0.353893 0.380535 189 189 189
-0.653282 0.270598 -0.707107 -0.656056 0.271737 -0.704031 189 189 189
-0.768178 0.318190 0.555570 -0.769890 0.318888 0.552751 189 189 189
-0.768178 0.318190 -0.555570 -0.769890 0.318888 -0.552751 189 189 189
-0.653282 0.270598 0.707107 -0.656056 0.271737 0.704031 189 189 189
-0.853554 0.353553 -0.382683 -0.854366 0.353862 -0.380535 189 189 189
-0.513280 0.212607 0.831470 -0.517136 0.214209 0.828639 189 189 189
-0.906128 0.375330 -0.195090 -0.906339 0.375408 -0.193915 189 189 189
-0.180240 0.074658 -0.980785 -0.185644 0.076907 -0.979583 189 189 189
-0.162212 0.108386 0.980785 -0.167089 0.111637 0.979583 189 189 189
-0.353554 0.146447 0.923880 -0.358348 0.148412 0.921690 189 189 189
-0.923880 0.382683 -0.000000 -0.923856 0.382672 0.000000 189 189 189
-0.353554 0.146447 -0.923880 -0.358348 0.148412 -0.921690 189 189 189
-0.906128 0.375330 0.195090 -0.906339 0.375408 0.193915 189 189 189
-0.961940 0.191342 -0.195090 -0.962157 0.191382 -0.193915 189 189 189
-0.191342 0.038060 -0.980785 -0.197089 0.039186 -0.979583 189 189 189
-0.180240 0.074658 0.980785 -0.185644 0.076907 0.979583 189 189 189
-0.375331 0.074658 0.923880 -0.380413 0.075655 0.921690 189 189 189
-0.980785 0.195090 -0.000000 -0.980773 0.195074 0.000000 189 189 189
-0.375331 0.074658 -0.923880 -0.380413 0.075655 -0.921690 189 189 189
-0.961940 0.191342 0.195090 -0.962157 0.191382 0.193915 189 189 189
-0.544896 0.108386 -0.831470 -0.548997 0.109195 -0.828639 189 189 189
-0.906128 0.180240 0.382683 -0.906980 0.180395 0.380535 189 189 189
-0.693520 0.137950 -0.707107 -0.696493 0.138524 -0.704031 189 189 189
-0.815493 0.162212 0.555570 -0.817316 0.162572 0.552751 189 189 189
-0.815493 0.162212 -0.555570 -0.817316 0.162572 -0.552751 189 189 189
-0.693520 0.137950 0.707107 -0.696493 0.138524 0.704031 189 189 189
-0.906128 0.180240 -0.382683 -0.906980 0.180395 -0.380535 189 189 189
-0.544895 0.108386 0.831470 -0.548997 0.109195 0.828639 189 189 189
-0.831470 -0.000000 0.555570 -0.833338 0.000000 0.552751 189 189 189
-0.831470 -0.000000 -0.555570 -0.833338 0.000000 -0.552751 189 189 189
-0.707107 -0.000000 0.707107 -0.710135 0.000000 0.704031 189 189 189
-0.923880 -0.000000 -0.382683 -0.924741 0.000000 -0.380535 189 189 189
-0.555571 -0.000000 0.831470 -0.559771 0.000000 0.828639 189 189 189
-0.980785 -0.000000 -0.195090 -0.980987 0.000000 -0.193915 189 189 189
-0.195091 -0.000000 -0.980785 -0.200964 0.000000 -0.979583 189 189 189
-0.191342 0.038060 0.980785 -0.197089 0.039186 0.979583 189 189 189
-0.382684 -0.000000 0.923880 -0.387860 0.000000 0.921690 189 189 189
-1.000000 -0.000000 -0.000000 -1.000000 0.000000 0.000000 189 189 189
-0.382684 -0.000000 -0.923880 -0.387860 0.000000 -0.921690 189 189 189
-0.980785 -0.000000 0.195090 -0.980987 0.000000 0.193915 189 189 189
-0.555571 -0.000000 -0.831470 -0.559771 0.000000 -0.828639 189 189 189
-0.923880 -0.000000 0.382683 -0.924741 0.000000 0.380535 189 189 189
-0.707107 -0.000000 -0.707107 -0.710135 0.000000 -0.704031 189 189 189
-0.961940 -0.191342 0.195090 -0.962157 -0.191382 0.193915 189 189 189
-0.544896 -0.108386 -0.831470 -0.548997 -0.109195 -0.828639 189 189 189
-0.906128 -0.180240 0.382683 -0.906980 -0.180395 0.380535 189 189 189
-0.693520 -0.137950 -0.707107 -0.696493 -0.138524 -0.704031 189 189 189
-0.815493 -0.162212 0.555570 -0.817316 -0.162572 0.552751 189 189 189
-0.815493 -0.162212 -0.555570 -0.817316 -0.162572 -0.552751 189 189 189
-0.693520 -0.137950 0.707107 -0.696493 -0.138524 0.704031 189 189 189
-0.906128 -0.180240 -0.382683 -0.906980 -0.180395 -0.380535 189 189 189
-0.544895 -0.108386 0.831470 -0.548997 -0.109195 0.828639 189 189 189
-0.961940 -0.191342 -0.195090 -0.962157 -0.191382 -0.193915 189 189 189
-0.191342 -0.038060 -0.980785 -0.197089 -0.039186 -0.979583 189 189 189
-0.195091 0.000000 0.980785 -0.200964 0.000000 0.979583 189 189 189
-0.375331 -0.074658 0.923880 -0.380413 -0.075655 0.921690 189 189 189
-0.980785 -0.195090 -0.000000 -0.980773 -0.195074 0.000000 189 189 189
-0.375331 -0.074658 -0.923880 -0.380413 -0.075655 -0.921690 189 189 189
-0.513280 -0.212608 0.831470 -0.517136 -0.214209 0.828639 189 189 189
-0.906128 -0.375330 -0.195090 -0.906339 -0.375408 -0.193915 189 189 189
-0.180240 -0.074658 -0.980785 -0.185644 -0.076907 -0.979583 189 189 189
-0.191342 -0.038060 0.980785 -0.197089 -0.039186 0.979583 189 189 189
-0.353554 -0.146447 0.923880 -0.358348 -0.148412 0.921690 189 189 189
-0.923880 -0.382683 -0.000000 -0.923856 -0.382672 0.000000 189 189 189
-0.353554 -0.146447 -0.923880 -0.358348 -0.148412 -0.921690 189 189 189
-0.906128 -0.375330 0.195090 -0.906339 -0.375408 0.193915 189 189 189
-0.513280 -0.212608 -0.831470 -0.517136 -0.214209 -0.828639 189 189 189
-0.853554 -0.353553 0.382683 -0.854366 -0.353893 0.380535 189 189 189
-0.653282 -0.270598 -0.707107 -0.656056 -0.271737 -0.704031 189 189 189
-0.768178 -0.318190 0.555570 -0.769890 -0.318888 0.552751 189 189 189
-0.768178 -0.318190 -0.555570 -0.769890 -0.318888 -0.552751 189 189 189
-0.653282 -0.270598 0.707107 -0.656056 -0.271737 0.704031 189 189 189
-0.853554 -0.353554 -0.382683 -0.854366 -0.353862 -0.380535 189 189 189
-0.691342 -0.461940 0.555570 -0.692892 -0.462966 0.552751 189 189 189
-0.691342 -0.461940 -0.555570 -0.692892 -0.462966 -0.552751 189 189 189
-0.587938 -0.392848 0.707107 -0.590442 -0.394513 0.704031 189 189 189
-0.768178 -0.513280 -0.382683 -0.768914 -0.513749 -0.380535 189 189 189
-0.461940 -0.308658 0.831470 -0.465407 -0.310984 0.828639 189 189 189
-0.815493 -0.544895 -0.195090 -0.815668 -0.545000 -0.193915 189 189 189
-0.162212 -0.108387 -0.980785 -0.167089 -0.111637 -0.979583 189 189 189
-0.180240 -0.074658 0.980785 -0.185644 -0.076907 0.979583 189 189 189
-0.318190 -0.212608 0.923880 -0.322489 -0.215491 0.921690 189 189 189
-0.831470 -0.555570 -0.000000 -0.831446 -0.555559 0.000000 189 189 189
-0.318190 -0.212608 -0.923880 -0.322489 -0.215491 -0.921690 189 189 189
-0.768178 -0.513280 0.382683 -0.768914 -0.513749 0.380535 189 189 189
-0.461940 -0.308658 -0.831470 -0.465407 -0.310984 -0.828639 189 189 189
-0.587938 -0.392848 -0.707107 -0.590442 -0.394513 -0.704031 189 189 189
-0.815493 -0.544895 0.195090 -0.815668 -0.545000 0.193915 189 189 189
-0.653282 -0.653282 0.382683 -0.653890 -0.653890 0.380535 189 189 189
-0.392848 -0.392848 -0.831470 -0.395795 -0.395795 -0.828639 189 189 189
-0.500000 -0.500000 -0.707107 -0.502121 -0.502121 -0.704031 189 189 189
-0.587938 -0.587938 0.555570 -0.589251 -0.589251 0.552751 189 189 189
-0.587938 -0.587938 -0.555570 -0.589251 -0.589251 -0.552751 189 189 189
-0.500000 -0.500000 0.707107 -0.502121 -0.502121 0.704031 189 189 189
-0.653282 -0.653282 -0.382683 -0.653890 -0.653890 -0.380535 189 189 189
-0.392848 -0.392848 0.831470 -0.395795 -0.395795 0.828639 189 189 189
-0.693520 -0.693520 -0.195090 -0.693655 -0.693655 -0.193915 189 189 189
-0.137950 -0.137950 -0.980785 -0.142094 -0.142094 -0.979583 189 189 189
-0.162212 -0.108386 0.980785 -0.167089 -0.111637 0.979583 189 189 189
-0.270598 -0.270598 0.923880 -0.274270 -0.274270 0.921690 189 189 189
-0.707107 -0.707107 -0.000000 -0.707083 -0.707083 0.000000 189 189 189
-0.270598 -0.270598 -0.923880 -0.274270 -0.274270 -0.921690 189 189 189
-0.308659 -0.461940 0.831470 -0.310984 -0.465407 0.828639 189 189 189
-0.544895 -0.815493 -0.195090 -0.545000 -0.815668 -0.193915 189 189 189
-0.108387 -0.162212 -0.980785 -0.111637 -0.167089 -0.979583 189 189 189
-0.137950 -0.137950 0.980785 -0.142094 -0.142094 0.979583 189 189 189
-0.212608 -0.318190 0.923880 -0.215491 -0.322489 0.921690 189 189 189
-0.693520 -0.693520 0.195090 -0.693655 -0.693655 0.193915 189 189 189
-0.555570 -0.831469 -0.000000 -0.555559 -0.831446 0.000000 189 189 189
-0.212608 -0.318190 -0.923880 -0.215491 -0.322489 -0.921690 189 189 189
-0.544895 -0.815493 0.195090 -0.545000 -0.815668 0.193915 189 189 189
-0.308659 -0.461940 -0.831470 -0.310984 -0.465407 -0.828639 189 189 189
-0.513280 -0.768178 0.382683 -0.513749 -0.768914 0.380535 189 189 189
-0.392848 -0.587938 -0.707107 -0.394513 -0.590442 -0.704031 189 189 189
-0.461940 -0.691342 0.555570 -0.462966 -0.692892 0.552751 189 189 189
-0.461940 -0.691342 -0.555570 -0.462966 -0.692892 -0.552751 189 189 189
-0.392848 -0.587938 0.707107 -0.394513 -0.590442 0.704031 189 189 189
-0.513280 -0.768178 -0.382683 -0.513749 -0.768914 -0.380535 189 189 189
-0.318190 -0.768178 0.555570 -0.318888 -0.769890 0.552751 189 189 189
-0.318190 -0.768178 -0.555570 -0.318888 -0.769890 -0.552751 189 189 189
-0.270598 -0.653281 0.707107 -0.271737 -0.656056 0.704031 189 189 189
-0.353554 -0.853553 -0.382683 -0.353862 -0.854366 -0.380535 189 189 189
-0.212608 -0.513280 0.831470 -0.214209 -0.517136 0.828639 189 189 189
-0.375330 -0.906127 -0.195090 -0.375408 -0.906339 -0.193915 189 189 189
-0.074658 -0.180240 -0.980785 -0.076907 -0.185644 -0.979583 189 189 189
-0.108387 -0.162212 0.980785 -0.111637 -0.167089 0.979583 189 189 189
-0.146447 -0.353553 0.923880 -0.148412 -0.358348 0.921690 189 189 189
-0.382683 -0.923879 -0.000000 -0.382672 -0.923856 0.000000 189 189 189
-0.146447 -0.353554 -0.923880 -0.148412 -0.358348 -0.921690 189 189 189
-0.375330 -0.906127 0.195090 -0.375408 -0.906339 0.193915 189 189 189
-0.212608 -0.513280 -0.831470 -0.214209 -0.517136 -0.828639 189 189 189
-0.353554 -0.853553 0.382683 -0.353862 -0.854366 0.380535 189 189 189
-0.270598 -0.653281 -0.707107 -0.271737 -0.656056 -0.704031 189 189 189
-0.074658 -0.375330 -0.923880 -0.075655 -0.380413 -0.921690 189 189 189
-0.191342 -0.961940 0.195090 -0.191382 -0.962157 0.193915 189 189 189
-0.108387 -0.544895 -0.831470 -0.109195 -0.548997 -0.828639 189 189 189
-0.180240 -0.906128 0.382683 -0.180395 -0.906980 0.380535 189 189 189
-0.137950 -0.693520 -0.707107 -0.138524 -0.696493 -0.704031 189 189 189
-0.162212 -0.815493 0.555570 -0.162572 -0.817316 0.552751 189 189 189
-0.162212 -0.815493 -0.555570 -0.162572 -0.817316 -0.552751 189 189 189
-0.137950 -0.693520 0.707107 -0.138524 -0.696493 0.704031 189 189 189
-0.180240 -0.906127 -0.382683 -0.180395 -0.906980 -0.380535 189 189 189
-0.108387 -0.544895 0.831470 -0.109195 -0.548997 0.828639 189 189 189
-0.191342 -0.961940 -0.195090 -0.191382 -0.962157 -0.193915 189 189 189
-0.038061 -0.191342 -0.980785 -0.039186 -0.197089 -0.979583 189 189 189
-0.074658 -0.180240 0.980785 -0.076907 -0.185644 0.979583 189 189 189
-0.074658 -0.375330 0.923880 -0.075655 -0.380413 0.921690 189 189 189
-0.195090 -0.980785 -0.000000 -0.195074 -0.980773 0.000000 189 189 189
-0.000000 -0.923879 -0.382683 0.000000 -0.924741 -0.380535 189 189 189
-0.000000 -0.555570 0.831470 0.000000 -0.559771 0.828639 189 189 189
-0.000000 -0.980785 -0.195090 0.000000 -0.980987 -0.193915 189 189 189
-0.000000 -0.195090 -0.980785 0.000000 -0.200964 -0.979583 189 189 189
-0.038061 -0.191342 0.980785 -0.039186 -0.197089 0.979583 189 189 189
-0.000000 -0.382683 0.923880 0.000000 -0.387860 0.921690 189 189 189
-0.000000 -1.000000 -0.000000 0.000000 -1.000000 0.000000 189 189 189
-0.000000 -0.382684 -0.923880 0.000000 -0.387860 -0.921690 189 189 189
-0.000000 -0.980785 0.195090 0.000000 -0.980987 0.193915 189 189 189
-0.000000 -0.555570 -0.831470 0.000000 -0.559771 -0.828639 189 189 189
-0.000000 -0.923880 0.382683 0.000000 -0.924741 0.380535 189 189 189
-0.000000 -0.707107 -0.707107 0.000000 -0.710135 -0.704031 189 189 189
-0.162212 -0.815493 0.555570 -0.162572 -0.817316 0.552751 190 190 190
-0.000000 -0.831469 0.555570 0.000000 -0.833338 0.552751 189 189 189
-0.000000 -0.831469 -0.555570 0.000000 -0.833338 -0.552751 189 189 189
-0.000000 -0.707107 0.707107 0.000000 -0.710135 0.704031 189 189 189
0.180240 -0.906127 0.382683 0.180395 -0.906980 0.380535 189 189 189
0.137949 -0.693520 -0.707107 0.138524 -0.696493 -0.704031 189 189 189
0.162211 -0.815493 0.555570 0.162572 -0.817316 0.552751 189 189 189
0.162211 -0.815493 -0.555570 0.162572 -0.817316 -0.552751 189 189 189
0.137949 -0.693520 0.707107 0.138524 -0.696493 0.704031 189 189 189
0.180240 -0.906127 -0.382683 0.180395 -0.906980 -0.380535 189 189 189
0.108386 -0.544895 0.831470 0.109195 -0.548997 0.828639 189 189 189
0.191342 -0.961939 -0.195090 0.191382 -0.962157 -0.193915 189 189 189
0.038060 -0.191342 -0.980785 0.039186 -0.197089 -0.979583 189 189 189
-0.000000 -0.195090 0.980785 0.000000 -0.200964 0.979583 189 189 189
0.074658 -0.375330 0.923880 0.075655 -0.380413 0.921690 189 189 189
0.195090 -0.980785 -0.000000 0.195074 -0.980773 0.000000 189 189 189
0.074658 -0.375330 -0.923880 0.075655 -0.380413 -0.921690 189 189 189
0.191342 -0.961939 0.195090 0.191382 -0.962157 0.193915 189 189 189
0.108386 -0.544895 -0.831470 0.109195 -0.548997 -0.828639 189 189 189
0.038060 -0.191342 0.980785 0.039186 -0.197089 0.979583 189 189 189
0.146446 -0.353553 0.923880 0.148412 -0.358348 0.921690 189 189 189
0.382683 -0.923879 -0.000000 0.382672 -0.923856 0.000000 189 189 189
0.146446 -0.353553 -0.923880 0.148412 -0.358348 -0.921690 189 189 189
0.375330 -0.906127 0.195090 0.375408 -0.906339 0.193915 189 189 189
0.212607 -0.513280 -0.831470 0.214209 -0.517136 -0.828639 189 189 189
0.353553 -0.853553 0.382683 0.353893 -0.854366 0.380535 189 189 189
0.270598 -0.653281 -0.707107 0.271737 -0.656056 -0.704031 189 189 189
0.318189 -0.768177 0.555570 0.318888 -0.769890 0.552751 189 189 189
0.318189 -0.768177 -0.555570 0.318888 -0.769890 -0.552751 189 189 189
0.108386 -0.544895 0.831470 0.109195 -0.548997 0.828639 191 191 191
0.270598 -0.653281 0.707107 0.271737 -0.656056 0.704031 189 189 189
0.353553 -0.853553 -0.382683 0.353893 -0.854366 -0.380535 189 189 189
0.212607 -0.513280 0.831470 0.214209 -0.517136 0.828639 189 189 189
0.375330 -0.906127 -0.195090 0.375408 -0.906339 -0.193915 189 189 189
0.074658 -0.180240 -0.980785 0.076876 -0.185644 -0.979583 189 189 189
0.392847 -0.587938 0.707107 0.394513 -0.590442 0.704031 189 189 189
0.513280 -0.768178 -0.382683 0.513749 -0.768914 -0.380535 189 189 189
0.308658 -0.461940 0.831470 0.310984 -0.465407 0.828639 189 189 189
0.544895 -0.815493 -0.195090 0.545000 -0.815668 -0.193915 189 189 189
0.108386 -0.162212 -0.980785 0.111637 -0.167089 -0.979583 189 189 189
0.074657 -0.180240 0.980785 0.076907 -0.185644 0.979583 189 189 189
0.212607 -0.318190 0.923880 0.215491 -0.322489 0.921690 189 189 189
0.555570 -0.831469 -0.000000 0.555559 -0.831446 0.000000 189 189 189
0.212607 -0.318190 -0.923880 0.215491 -0.322489 -0.921690 189 189 189
0.544895 -0.815493 0.195090 0.545000 -0.815668 0.193915 189 189 189
0.308658 -0.461940 -0.831470 0.310984 -0.465407 -0.828639 189 189 189
0.513280 -0.768178 0.382683 0.513749 -0.768914 0.380535 189 189 189
0.392847 -0.587938 -0.707107 0.394513 -0.590442 -0.704031 189 189 189
0.461939 -0.691341 0.555570 0.462966 -0.692892 0.552751 189 189 189
0.461939 -0.691341 -0.555570 0.462966 -0.692892 -0.552751 189 189 189
0.653281 -0.653281 0.382683 0.653890 -0.653890 0.380535 189 189 189
0.500000 -0.500000 -0.707107 0.502121 -0.502121 -0.704031 189 189 189
0.587937 -0.587937 0.555570 0.589251 -0.589251 0.552751 189 189 189
0.587937 -0.587937 -0.555570 0.589251 -0.589251 -0.552751 189 189 189
0.500000 -0.500000 0.707107 0.502121 -0.502121 0.704031 189 189 189
0.653281 -0.653281 -0.382683 0.653890 -0.653890 -0.380535 189 189 189
0.392847 -0.392847 0.831470 0.395795 -0.395795 0.828639 189 189 189
0.693519 -0.693519 -0.195090 0.693655 -0.693655 -0.193915 189 189 189
0.137949 -0.137950 -0.980785 0.142094 -0.142094 -0.979583 189 189 189
0.108386 -0.162212 0.980785 0.111637 -0.167089 0.979583 189 189 189
0.270598 -0.270598 0.923880 0.274270 -0.274270 0.921690 189 189 189
0.707106 -0.707106 -0.000000 0.707083 -0.707083 0.000000 189 189 189
0.270598 -0.270598 -0.923880 0.274270 -0.274270 -0.921690 189 189 189
0.693519 -0.693519 0.195090 0.693655 -0.693655 0.193915 189 189 189
0.392847 -0.392847 -0.831470 0.395795 -0.395795 -0.828639 189 189 189
0.137949 -0.137950 0.980785 0.142094 -0.142094 0.979583 189 189 189
0.318189 -0.212608 0.923880 0.322489 -0.215491 0.921690 189 189 189
0.831469 -0.555570 -0.000000 0.831446 -0.555559 0.000000 189 189 189
0.318189 -0.212608 -0.923880 0.322489 -0.215491 -0.921690 189 189 189
0.815493 -0.544895 0.195090 0.815668 -0.545000 0.193915 189 189 189
0.461939 -0.308658 -0.831470 0.465407 -0.310984 -0.828639 189 189 189
0.768178 -0.513280 0.382683 0.768914 -0.513749 0.380535 189 189 189
0.587937 -0.392847 -0.707107 0.590442 -0.394513 -0.704031 189 189 189
0.691341 -0.461939 0.555570 0.692892 -0.462966 0.552751 189 189 189
0.691341 -0.461939 -0.555570 0.692892 -0.462966 -0.552751 189 189 189
0.587937 -0.392847 0.707107 0.590442 -0.394513 0.704031 191 191 191
0.768177 -0.513280 -0.382683 0.768914 -0.513749 -0.380535 189 189 189
0.461939 -0.308658 0.831470 0.465407 -0.310984 0.828639 189 189 189
0.815493 -0.544895 -0.195090 0.815668 -0.545000 -0.193915 189 189 189
0.162211 -0.108386 -0.980785 0.167089 -0.111637 -0.979583 189 189 189
0.587937 -0.392847 0.707107 0.590442 -0.394513 0.704031 189 189 189
0.653281 -0.270598 0.707107 0.656056 -0.271737 0.704031 189 189 189
0.853553 -0.353553 -0.382683 0.854366 -0.353862 -0.380535 189 189 189
0.513280 -0.212607 0.831470 0.517136 -0.214209 0.828639 189 189 189
0.906127 -0.375330 -0.195090 0.906339 -0.375408 -0.193915 189 189 189
0.180240 -0.074658 -0.980785 0.185644 -0.076907 -0.979583 189 189 189
0.162211 -0.108386 0.980785 0.167089 -0.111637 0.979583 189 189 189
0.353553 -0.146447 0.923880 0.358348 -0.148412 0.921690 189 189 189
0.923879 -0.382683 -0.000000 0.923856 -0.382672 0.000000 189 189 189
0.353553 -0.146447 -0.923880 0.358348 -0.148412 -0.921690 189 189 189
0.906127 -0.375330 0.195090 0.906339 -0.375408 0.193915 189 189 189
0.513280 -0.212607 -0.831470 0.517136 -0.214209 -0.828639 189 189 189
0.853553 -0.353553 0.382683 0.854366 -0.353862 0.380535 189 189 189
0.653281 -0.270598 -0.707107 0.656056 -0.271737 -0.704031 189 189 189
0.768177 -0.318189 0.555570 0.769890 -0.318888 0.552751 189 189 189
0.768177 -0.318189 -0.555570 0.769890 -0.318888 -0.552751 189 189 189
0.906127 -0.180240 0.382683 0.906980 -0.180395 0.380535 189 189 189
0.693520 -0.137950 -0.707107 0.696493 -0.138524 -0.704031 189 189 189
0.815492 -0.162211 0.555570 0.817316 -0.162572 0.552751 189 189 189
0.815492 -0.162211 -0.555570 0.817316 -0.162572 -0.552751 189 189 189
0.693520 -0.137950 0.707107 0.696493 -0.138524 0.704031 189 189 189
0.906127 -0.180240 -0.382683 0.906980 -0.180395 -0.380535 189 189 189
0.544895 -0.108386 0.831470 0.548997 -0.109195 0.828639 189 189 189
0.961939 -0.191341 -0.195090 0.962157 -0.191382 -0.193915 189 189 189
0.191341 -0.038060 -0.980785 0.197089 -0.039186 -0.979583 189 189 189
0.180240 -0.074658 0.980785 0.185644 -0.076907 0.979583 189 189 189
0.375330 -0.074658 0.923880 0.380413 -0.075655 0.921690 189 189 189
0.980784 -0.195090 -0.000000 0.980773 -0.195074 0.000000 189 189 189
0.375330 -0.074658 -0.923880 0.380413 -0.075655 -0.921690 189 189 189
0.961939 -0.191341 0.195090 0.962157 -0.191382 0.193915 189 189 189
0.544895 -0.108386 -0.831470 0.548997 -0.109195 -0.828639 189 189 189
-0.000000 0.000000 1.000000 0.000000 0.000000 1.000000 189 189 189
-0.000000 -0.000000 -1.000000 0.000000 0.000000 -1.000000 189 189 189
0.191341 -0.038060 0.980785 0.197089 -0.039186 0.979583 189 189 189
3 0 1 2
3 3 4 5
3 6 0 7
3 8 3 9
3 10 6 11
3 12 8 13
3 14 10 15
3 16 12 17
3 18 14 19
3 20 16 21
3 22 18 23
3 1 20 24
3 4 25 26
3 27 22 28
3 19 15 29
3 21 17 30
3 23 19 31
3 24 21 32
3 28 23 33
3 2 24 34
3 5 26 35
3 36 28 37
3 7 2 38
3 9 5 39
3 11 7 40
3 13 9 41
3 15 11 42
3 17 13 43
3 42 40 44
3 43 41 45
3 29 42 46
3 30 43 47
3 31 29 48
3 32 30 49
3 33 31 50
3 34 32 51
3 37 33 52
3 38 34 53
3 39 35 54
3 55 37 56
3 40 38 57
3 41 39 58
3 56 52 59
3 57 53 60
3 58 54 61
3 62 56 63
3 44 57 64
3 45 58 65
3 46 44 66
3 47 45 67
3 48 46 68
3 49 47 69
3 50 48 70
3 51 49 71
3 52 50 72
3 53 51 73
3 71 69 74
3 72 70 75
3 73 71 76
3 59 72 77
3 60 73 78
3 63 59 79
3 64 60 80
3 65 61 81
3 82 63 83
3 66 64 84
3 67 65 85
3 68 66 86
3 69 67 87
3 88 68 89
3 86 84 90
3 87 85 91
3 89 86 92
3 74 87 93
3 94 89 95
3 76 74 96
3 77 75 97
3 78 76 98
3 79 77 99
3 80 78 100
3 83 79 101
3 84 80 90
3 85 81 102
3 103 83 104
3 101 99 105
3 106 100 107
3 104 101 108
3 90 106 109
3 91 102 110
3 111 104 112
3 92 90 109
3 93 91 113
3 95 92 114
3 96 93 115
3 116 95 114
3 98 96 117
3 99 97 118
3 100 98 119
3 120 114 121
3 119 117 122
3 105 118 123
3 107 119 124
3 108 105 125
3 126 107 127
3 112 108 128
3 109 126 129
3 113 110 130
3 131 112 132
3 133 109 129
3 115 113 134
3 114 133 121
3 117 115 135
3 136 132 137
3 138 129 139
3 135 134 140
3 121 138 141
3 122 135 142
3 123 121 141
3 124 122 143
3 125 123 144
3 127 124 145
3 128 125 146
3 147 127 148
3 132 128 149
3 129 147 139
3 134 130 150
3 149 146 151
3 152 148 153
3 137 149 154
3 139 152 155
3 140 150 156
3 157 137 158
3 159 139 155
3 142 140 160
3 141 159 161
3 143 142 162
3 144 141 161
3 145 143 163
3 146 144 164
3 148 145 165
3 164 161 166
3 165 167 168
3 151 164 169
3 153 165 170
3 154 151 171
3 172 153 173
3 158 154 174
3 155 172 175
3 160 156 176
3 177 158 178
3 179 155 175
3 162 160 180
3 161 179 166
3 163 162 181
3 182 178 183
3 184 175 185
3 181 180 186
3 166 184 187
3 188 181 189
3 169 166 187
3 190 168 191
3 171 169 192
3 173 170 193
3 174 171 194
3 195 173 196
3 178 174 197
3 175 195 198
3 180 176 199
3 197 194 200
3 198 196 201
3 183 197 202
3 185 198 203
3 186 199 204
3 205 183 206
3 207 185 208
3 189 186 209
3 187 207 210
3 191 189 211
3 192 187 212
3 193 191 213
3 194 192 214
3 196 193 215
3 213 211 216
3 214 212 217
3 215 213 218
3 200 214 219
3 201 215 220
3 202 200 221
3 203 201 222
3 206 202 223
3 208 203 224
3 209 204 225
3 226 206 227
3 210 208 228
3 211 209 229
3 212 210 230
3 228 224 231
3 229 225 232
3 233 227 234
3 230 228 235
3 216 229 236
3 217 230 237
3 218 216 238
3 219 217 239
3 220 218 240
3 221 219 241
3 222 220 242
3 223 221 243
3 224 222 244
3 227 223 245
3 243 241 246
3 244 242 247
3 245 243 248
3 231 244 249
3 234 245 250
3 235 231 251
3 236 232 252
3 253 234 254
3 237 235 255
3 238 236 256
3 239 237 257
3 240 238 258
3 241 239 259
3 242 240 260
3 259 257 261
3 260 258 262
3 246 259 263
3 247 260 264
3 248 246 265
3 249 247 266
3 250 248 267
3 251 249 268
3 254 250 269
3 255 251 270
3 256 252 271
3 272 254 273
3 257 255 274
3 258 256 275
3 273 269 276
3 274 270 277
3 275 271 278
3 279 273 280
3 261 274 281
3 262 275 282
3 263 261 283
3 264 262 284
3 265 263 285
3 266 264 286
3 267 265 287
3 268 266 288
3 269 267 289
3 270 268 290
3 289 287 291
3 290 288 292
3 276 289 293
3 277 290 294
3 280 276 295
3 281 277 296
3 282 278 297
3 298 280 299
3 283 281 300
3 284 282 301
3 285 283 302
3 286 284 303
3 287 285 302
3 288 286 304
3 302 305 306
3 304 303 307
3 291 302 306
3 292 304 308
3 293 291 309
3 294 292 310
3 295 293 311
3 296 294 312
3 299 295 313
3 300 296 314
3 301 297 315
3 316 299 317
3 305 300 318
3 303 301 319
3 317 313 320
3 318 314 321
3 319 315 322
3 323 317 324
3 325 318 326
3 307 319 327
3 306 325 328
3 308 307 329
3 309 306 330
3 310 308 331
3 311 309 332
3 312 310 333
3 313 311 334
3 314 312 335
3 334 332 336
3 335 333 337
3 320 334 338
3 321 335 339
3 324 320 340
3 326 321 341
3 327 322 342
3 343 324 344
3 328 326 345
3 329 327 346
3 330 328 347
3 331 329 348
3 332 330 349
3 333 331 350
3 348 346 351
3 349 347 352
3 350 348 353
3 336 349 354
3 337 350 355
3 338 336 356
3 339 337 357
3 340 338 358
3 341 339 359
3 344 340 360
3 345 341 361
3 346 342 362
3 363 344 364
3 347 345 365
3 361 359 366
3 364 360 367
3 365 361 368
3 351 362 369
3 370 364 371
3 352 365 372
3 353 351 373
3 354 352 374
3 355 353 375
3 356 354 376
3 357 355 377
3 358 378 379
3 359 357 380
3 360 358 381
3 379 376 382
3 380 377 383
3 381 379 384
3 366 380 385
3 367 381 386
3 368 366 387
3 371 367 388
3 372 368 389
3 373 369 390
3 391 371 392
3 374 372 393
3 375 373 394
3 376 374 395
3 377 375 396
3 397 392 398
3 395 393 399
3 396 394 400
3 382 395 401
3 383 396 402
3 384 382 403
3 385 383 404
3 386 384 405
3 387 385 406
3 407 386 408
3 389 387 409
3 392 388 410
3 393 389 411
3 394 390 412
3 410 408 413
3 411 409 414
3 398 410 415
3 399 411 416
3 400 412 417
3 418 398 419
3 401 399 420
3 402 400 421
3 403 401 422
3 404 402 423
3 405 403 424
3 406 404 425
3 408 405 426
3 409 406 427
3 426 424 428
3 427 425 429
3 413 426 430
3 414 427 431
3 415 413 432
3 416 414 433
3 419 415 434
3 420 416 435
3 421 417 436
3 437 419 438
3 422 420 439
3 423 421 440
3 424 422 441
3 425 423 442
3 443 438 444
3 441 439 445
3 442 440 446
3 428 441 447
3 429 442 448
3 430 428 449
3 431 429 450
3 432 430 451
3 433 431 452
3 434 432 453
3 435 433 454
3 438 434 455
3 439 435 456
3 440 436 457
3 455 458 459
3 456 454 460
3 444 455 461
3 445 456 462
3 446 457 463
3 464 444 465
3 447 445 466
3 448 446 467
3 449 447 468
3 450 448 469
3 451 449 470
3 452 450 471
3 453 451 472
3 454 452 473
3 472 470 474
3 473 471 475
3 459 472 476
3 460 473 477
3 461 459 478
3 462 460 479
3 465 461 480
3 466 462 481
3 467 463 482
3 483 465 484
3 468 466 485
3 469 467 486
3 470 468 487
3 471 469 488
3 489 27 36
3 25 490 26
3 26 490 35
3 489 36 55
3 489 55 62
3 35 490 54
3 54 490 61
3 489 62 82
3 61 490 81
3 489 82 103
3 489 103 111
3 81 490 102
3 102 490 110
3 489 111 131
3 110 490 130
3 489 131 136
3 489 136 157
3 130 490 150
3 150 490 156
3 489 157 177
3 156 490 176
3 489 177 182
3 489 182 205
3 176 490 199
3 199 490 204
3 489 205 226
3 204 490 225
3 489 226 233
3 489 233 253
3 225 490 232
3 232 490 252
3 489 253 272
3 489 272 279
3 252 490 271
3 489 279 298
3 271 490 278
3 278 490 297
3 489 298 316
3 489 316 323
3 297 490 315
3 489 323 343
3 315 490 322
3 322 490 342
3 489 343 363
3 489 363 370
3 342 490 362
3 362 490 369
3 489 370 391
3 369 490 390
3 489 391 397
3 489 397 418
3 390 490 412
3 412 490 417
3 489 418 437
3 417 490 436
3 489 437 443
3 489 443 464
3 436 490 457
3 457 490 463
3 489 464 483
3 463 490 482
3 489 483 491
3 482 25 486
3 491 484 27
3 487 485 1
3 488 486 4
3 489 491 27
3 474 487 6
3 475 488 3
3 476 474 10
3 477 475 8
3 478 476 14
3 479 477 12
3 480 478 18
3 481 479 16
3 490 25 482
3 484 480 22
3 485 481 20
3 7 0 2
3 9 3 5
3 11 6 7
3 13 8 9
3 15 10 11
3 17 12 13
3 19 14 15
3 21 16 17
3 23 18 19
3 24 20 21
3 28 22 23
3 2 1 24
3 5 4 26
3 36 27 28
3 31 19 29
3 32 21 30
3 33 23 31
3 34 24 32
3 37 28 33
3 38 2 34
3 39 5 35
3 55 36 37
3 40 7 38
3 41 9 39
3 42 11 40
3 43 13 41
3 29 15 42
3 30 17 43
3 46 42 44
3 47 43 45
3 48 29 46
3 49 30 47
3 50 31 48
3 51 32 49
3 52 33 50
3 53 34 51
3 56 37 52
3 57 38 53
3 58 39 54
3 62 55 56
3 44 40 57
3 45 41 58
3 63 56 59
3 64 57 60
3 65 58 61
3 82 62 63
3 66 44 64
3 67 45 65
3 68 46 66
3 69 47 67
3 88 48 68
3 71 49 69
3 72 50 70
3 73 51 71
3 59 52 72
3 60 53 73
3 76 71 74
3 77 72 75
3 78 73 76
3 79 59 77
3 80 60 78
3 83 63 79
3 84 64 80
3 85 65 81
3 103 82 83
3 86 66 84
3 87 67 85
3 89 68 86
3 74 69 87
3 94 88 89
3 92 86 90
3 93 87 91
3 95 89 92
3 96 74 93
3 116 94 95
3 98 76 96
3 99 77 97
3 100 78 98
3 101 79 99
3 106 80 100
3 104 83 101
3 80 106 90
3 91 85 102
3 111 103 104
3 108 101 105
3 126 106 107
3 112 104 108
3 106 126 109
3 113 91 110
3 131 111 112
3 133 92 109
3 115 93 113
3 92 133 114
3 117 96 115
3 120 116 114
3 119 98 117
3 105 99 118
3 107 100 119
3 123 120 121
3 124 119 122
3 125 105 123
3 127 107 124
3 128 108 125
3 147 126 127
3 132 112 128
3 126 147 129
3 134 113 130
3 136 131 132
3 138 133 129
3 135 115 134
3 133 138 121
3 122 117 135
3 157 136 137
3 159 138 139
3 142 135 140
3 138 159 141
3 143 122 142
3 144 123 141
3 145 124 143
3 146 125 144
3 148 127 145
3 149 128 146
3 152 147 148
3 137 132 149
3 147 152 139
3 140 134 150
3 154 149 151
3 172 152 153
3 158 137 154
3 152 172 155
3 160 140 156
3 177 157 158
3 179 159 155
3 162 142 160
3 159 179 161
3 163 143 162
3 164 144 161
3 165 145 163
3 151 146 164
3 153 148 165
3 169 164 166
3 190 165 168
3 171 151 169
3 173 153 170
3 174 154 171
3 195 172 173
3 178 158 174
3 172 195 175
3 180 160 176
3 182 177 178
3 184 179 175
3 181 162 180
3 179 184 166
3 188 163 181
3 205 182 183
3 207 184 185
3 189 181 186
3 184 207 187
3 191 188 189
3 192 169 187
3 193 190 191
3 194 171 192
3 196 173 193
3 197 174 194
3 198 195 196
3 183 178 197
3 185 175 198
3 186 180 199
3 202 197 200
3 203 198 201
3 206 183 202
3 208 185 203
3 209 186 204
3 226 205 206
3 210 207 208
3 211 189 209
3 212 187 210
3 213 191 211
3 214 192 212
3 215 193 213
3 200 194 214
3 201 196 215
3 218 213 216
3 219 214 217
3 220 215 218
3 221 200 219
3 222 201 220
3 223 202 221
3 224 203 222
3 227 206 223
3 228 208 224
3 229 209 225
3 233 226 227
3 230 210 228
3 216 211 229
3 217 212 230
3 235 228 231
3 236 229 232
3 253 233 234
3 237 230 235
3 238 216 236
3 239 217 237
3 240 218 238
3 241 219 239
3 242 220 240
3 243 221 241
3 244 222 242
3 245 223 243
3 231 224 244
3 234 227 245
3 248 243 246
3 249 244 247
3 250 245 248
3 251 231 249
3 254 234 250
3 255 235 251
3 256 236 252
3 272 253 254
3 257 237 255
3 258 238 256
3 259 239 257
3 260 240 258
3 246 241 259
3 247 242 260
3 263 259 261
3 264 260 262
3 265 246 263
3 266 247 264
3 267 248 265
3 268 249 266
3 269 250 267
3 270 251 268
3 273 254 269
3 274 255 270
3 275 256 271
3 279 272 273
3 261 257 274
3 262 258 275
3 280 273 276
3 281 274 277
3 282 275 278
3 298 279 280
3 283 261 281
3 284 262 282
3 285 263 283
3 286 264 284
3 287 265 285
3 288 266 286
3 289 267 287
3 290 268 288
3 276 269 289
3 277 270 290
3 293 289 291
3 294 290 292
3 295 276 293
3 296 277 294
3 299 280 295
3 300 281 296
3 301 282 297
3 316 298 299
3 305 283 300
3 303 284 301
3 283 305 302
3 304 286 303
3 291 287 302
3 292 288 304
3 305 325 306
3 308 304 307
3 309 291 306
3 310 292 308
3 311 293 309
3 312 294 310
3 313 295 311
3 314 296 312
3 317 299 313
3 318 300 314
3 319 301 315
3 323 316 317
3 325 305 318
3 307 303 319
3 324 317 320
3 326 318 321
3 327 319 322
3 343 323 324
3 328 325 326
3 329 307 327
3 330 306 328
3 331 308 329
3 332 309 330
3 333 310 331
3 334 311 332
3 335 312 333
3 320 313 334
3 321 314 335
3 338 334 336
3 339 335 337
3 340 320 338
3 341 321 339
3 344 324 340
3 345 326 341
3 346 327 342
3 363 343 344
3 347 328 345
3 348 329 346
3 349 330 347
3 350 331 348
3 336 332 349
3 337 333 350
3 353 348 351
3 354 349 352
3 355 350 353
3 356 336 354
3 357 337 355
3 358 338 356
3 359 339 357
3 360 340 358
3 361 341 359
3 364 344 360
3 365 345 361
3 351 346 362
3 370 363 364
3 352 347 365
3 368 361 366
3 371 364 367
3 372 365 368
3 373 351 369
3 391 370 371
3 374 352 372
3 375 353 373
3 376 354 374
3 377 355 375
3 379 356 376
3 380 357 377
3 381 358 379
3 366 359 380
3 367 360 381
3 384 379 382
3 385 380 383
3 386 381 384
3 387 366 385
3 388 367 386
3 389 368 387
3 392 371 388
3 393 372 389
3 394 373 390
3 397 391 392
3 395 374 393
3 396 375 394
3 382 376 395
3 383 377 396
3 418 397 398
3 401 395 399
3 402 396 400
3 403 382 401
3 404 383 402
3 405 384 403
3 406 385 404
3 408 386 405
3 409 387 406
3 410 407 408
3 411 389 409
3 398 392 410
3 399 393 411
3 400 394 412
3 415 410 413
3 416 411 414
3 419 398 415
3 420 399 416
3 421 400 417
3 437 418 419
3 422 401 420
3 423 402 421
3 424 403 422
3 425 404 423
3 426 405 424
3 427 406 425
3 413 408 426
3 414 409 427
3 430 426 428
3 431 427 429
3 432 413 430
3 433 414 431
3 434 415 432
3 435 416 433
3 438 419 434
3 439 420 435
3 440 421 436
3 443 437 438
3 441 422 439
3 442 423 440
3 428 424 441
3 429 425 442
3 464 443 444
3 447 441 445
3 448 442 446
3 449 428 447
3 450 429 448
3 451 430 449
3 452 431 450
3 453 432 451
3 454 433 452
3 455 434 453
3 456 435 454
3 444 438 455
3 445 439 456
3 446 440 457
3 461 455 459
3 462 456 460
3 465 444 461
3 466 445 462
3 467 446 463
3 483 464 465
3 468 447 466
3 469 448 467
3 470 449 468
3 471 450 469
3 472 451 470
3 473 452 471
3 459 453 472
3 460 454 473
3 476 472 474
3 477 473 475
3 478 459 476
3 479 460 477
3 480 461 478
3 481 462 479
3 484 465 480
3 485 466 481
3 486 467 482
3 491 483 484
3 487 468 485
3 488 469 486
3 474 470 487
3 475 471 488
3 486 25 4
3 484 22 27
3 0 487 1
3 3 488 4
3 487 0 6
3 8 475 3
3 474 6 10
3 12 477 8
3 476 10 14
3 16 479 12
3 478 14 18
3 20 481 16
3 480 18 22
3 1 485 20
